G04 #@! TF.GenerationSoftware,KiCad,Pcbnew,8.0.3*
G04 #@! TF.CreationDate,2024-06-24T22:19:19+09:00*
G04 #@! TF.ProjectId,sepsepkbd,73657073-6570-46b6-9264-2e6b69636164,2.1*
G04 #@! TF.SameCoordinates,Original*
G04 #@! TF.FileFunction,Soldermask,Top*
G04 #@! TF.FilePolarity,Negative*
%FSLAX46Y46*%
G04 Gerber Fmt 4.6, Leading zero omitted, Abs format (unit mm)*
G04 Created by KiCad (PCBNEW 8.0.3) date 2024-06-24 22:19:19*
%MOMM*%
%LPD*%
G01*
G04 APERTURE LIST*
G04 Aperture macros list*
%AMRoundRect*
0 Rectangle with rounded corners*
0 $1 Rounding radius*
0 $2 $3 $4 $5 $6 $7 $8 $9 X,Y pos of 4 corners*
0 Add a 4 corners polygon primitive as box body*
4,1,4,$2,$3,$4,$5,$6,$7,$8,$9,$2,$3,0*
0 Add four circle primitives for the rounded corners*
1,1,$1+$1,$2,$3*
1,1,$1+$1,$4,$5*
1,1,$1+$1,$6,$7*
1,1,$1+$1,$8,$9*
0 Add four rect primitives between the rounded corners*
20,1,$1+$1,$2,$3,$4,$5,0*
20,1,$1+$1,$4,$5,$6,$7,0*
20,1,$1+$1,$6,$7,$8,$9,0*
20,1,$1+$1,$8,$9,$2,$3,0*%
%AMHorizOval*
0 Thick line with rounded ends*
0 $1 width*
0 $2 $3 position (X,Y) of the first rounded end (center of the circle)*
0 $4 $5 position (X,Y) of the second rounded end (center of the circle)*
0 Add line between two ends*
20,1,$1,$2,$3,$4,$5,0*
0 Add two circle primitives to create the rounded ends*
1,1,$1,$2,$3*
1,1,$1,$4,$5*%
%AMRotRect*
0 Rectangle, with rotation*
0 The origin of the aperture is its center*
0 $1 length*
0 $2 width*
0 $3 Rotation angle, in degrees counterclockwise*
0 Add horizontal line*
21,1,$1,$2,0,0,$3*%
G04 Aperture macros list end*
%ADD10R,1.700000X1.700000*%
%ADD11O,1.700000X1.700000*%
%ADD12RotRect,1.700000X1.700000X45.000000*%
%ADD13HorizOval,1.700000X0.000000X0.000000X0.000000X0.000000X0*%
%ADD14R,0.950000X1.300000*%
%ADD15R,1.700000X1.000000*%
%ADD16C,1.701800*%
%ADD17C,0.990600*%
%ADD18C,3.000000*%
%ADD19C,3.429000*%
%ADD20R,2.600000X2.600000*%
%ADD21RotRect,2.600000X2.600000X45.000000*%
%ADD22R,1.000000X1.700000*%
%ADD23R,1.300000X0.950000*%
%ADD24RotRect,1.700000X1.000000X45.000000*%
%ADD25C,1.200000*%
%ADD26O,2.500000X1.700000*%
%ADD27O,1.500000X2.600000*%
%ADD28O,2.600000X1.500000*%
%ADD29RoundRect,0.375000X0.375000X-0.925000X0.375000X0.925000X-0.375000X0.925000X-0.375000X-0.925000X0*%
%ADD30R,1.500000X2.600000*%
%ADD31RotRect,1.300000X0.950000X315.000000*%
G04 APERTURE END LIST*
D10*
X97000000Y-78000000D03*
D11*
X99540000Y-78000000D03*
X102080000Y-78000000D03*
X104620000Y-78000000D03*
X107160000Y-78000000D03*
X109700000Y-78000000D03*
X112240000Y-78000000D03*
X114780000Y-78000000D03*
X117320000Y-78000000D03*
X119860000Y-78000000D03*
D10*
X64000000Y-78000000D03*
D11*
X66540000Y-78000000D03*
X69080000Y-78000000D03*
D12*
X142391636Y-96900000D03*
D13*
X144187687Y-98696051D03*
X145983738Y-100492102D03*
X147779790Y-102288154D03*
X149575841Y-104084205D03*
X151371892Y-105880256D03*
X153167943Y-107676307D03*
X154963995Y-109472359D03*
D10*
X59391636Y-83200000D03*
D11*
X61931636Y-83200000D03*
X64471636Y-83200000D03*
D10*
X92391636Y-83200000D03*
D11*
X94931636Y-83200000D03*
X97471636Y-83200000D03*
X100011636Y-83200000D03*
X102551636Y-83200000D03*
X105091636Y-83200000D03*
X107631636Y-83200000D03*
X110171636Y-83200000D03*
X112711636Y-83200000D03*
X115251636Y-83200000D03*
D14*
X133420000Y-20700000D03*
X133420000Y-24250000D03*
X100420000Y-39700000D03*
X100420000Y-43250000D03*
D15*
X50820000Y-21700000D03*
X50820000Y-23100000D03*
X45320000Y-23100000D03*
X45320000Y-21700000D03*
D16*
X85432500Y-46150000D03*
D17*
X85712500Y-41950000D03*
D18*
X85932500Y-49900000D03*
D19*
X90932500Y-46150000D03*
D18*
X90932500Y-52100000D03*
X95932500Y-49900000D03*
D17*
X96152500Y-41950000D03*
D16*
X96432500Y-46150000D03*
D20*
X87657500Y-52100000D03*
X99207500Y-49900000D03*
D15*
X69870000Y-21700000D03*
X69870000Y-23100000D03*
X64370000Y-23100000D03*
X64370000Y-21700000D03*
D16*
X148082500Y-50175000D03*
D17*
X152282500Y-50455000D03*
D18*
X144332500Y-50675000D03*
D19*
X148082500Y-55675000D03*
D18*
X142132500Y-55675000D03*
X144332500Y-60675000D03*
D17*
X152282500Y-60895000D03*
D16*
X148082500Y-61175000D03*
D20*
X142132500Y-52400000D03*
X144332500Y-63950000D03*
D14*
X57420000Y-20700000D03*
X57420000Y-24250000D03*
D15*
X55582500Y-40750000D03*
X55582500Y-42150000D03*
X50082500Y-42150000D03*
X50082500Y-40750000D03*
X88920000Y-21700000D03*
X88920000Y-23100000D03*
X83420000Y-23100000D03*
X83420000Y-21700000D03*
D16*
X104482500Y-46150000D03*
D17*
X104762500Y-41950000D03*
D18*
X104982500Y-49900000D03*
D19*
X109982500Y-46150000D03*
D18*
X109982500Y-52100000D03*
X114982500Y-49900000D03*
D17*
X115202500Y-41950000D03*
D16*
X115482500Y-46150000D03*
D20*
X106707500Y-52100000D03*
X118257500Y-49900000D03*
D16*
X61620000Y-65200000D03*
D17*
X61900000Y-61000000D03*
D18*
X62120000Y-68950000D03*
D19*
X67120000Y-65200000D03*
D18*
X67120000Y-71150000D03*
X72120000Y-68950000D03*
D17*
X72340000Y-61000000D03*
D16*
X72620000Y-65200000D03*
D20*
X63845000Y-71150000D03*
X75395000Y-68950000D03*
D16*
X23520000Y-46150000D03*
D17*
X23800000Y-41950000D03*
D18*
X24020000Y-49900000D03*
D19*
X29020000Y-46150000D03*
D18*
X29020000Y-52100000D03*
X34020000Y-49900000D03*
D17*
X34240000Y-41950000D03*
D16*
X34520000Y-46150000D03*
D20*
X25745000Y-52100000D03*
X37295000Y-49900000D03*
D14*
X76420000Y-20700000D03*
X76420000Y-24250000D03*
D16*
X106464569Y-121766875D03*
D17*
X103692710Y-118599037D03*
D18*
X109469773Y-124064972D03*
D19*
X110353656Y-117877788D03*
D18*
X114560941Y-122085073D03*
X116540840Y-116993905D03*
D17*
X111074905Y-111216842D03*
D16*
X114242743Y-113988701D03*
D21*
X112245167Y-124400848D03*
X118856615Y-114678130D03*
D16*
X140140529Y-121766875D03*
D17*
X137368670Y-118599037D03*
D18*
X143145733Y-124064972D03*
D19*
X144029616Y-117877788D03*
D18*
X148236901Y-122085073D03*
X150216800Y-116993905D03*
D17*
X144750865Y-111216842D03*
D16*
X147918703Y-113988701D03*
D21*
X145921127Y-124400848D03*
X152532575Y-114678130D03*
D14*
X38420000Y-20700000D03*
X38420000Y-24250000D03*
D22*
X153482500Y-58425000D03*
X152082500Y-58425000D03*
X152082500Y-52925000D03*
X153482500Y-52925000D03*
D23*
X55725000Y-77900000D03*
X59275000Y-77900000D03*
D15*
X69870000Y-59800000D03*
X69870000Y-61200000D03*
X64370000Y-61200000D03*
X64370000Y-59800000D03*
D14*
X57420000Y-58700000D03*
X57420000Y-62250000D03*
D15*
X31770000Y-21700000D03*
X31770000Y-23100000D03*
X26270000Y-23100000D03*
X26270000Y-21700000D03*
D24*
X108479823Y-112114869D03*
X109469772Y-113104818D03*
X105580685Y-116993905D03*
X104590736Y-116003956D03*
D14*
X136920000Y-58700000D03*
X136920000Y-62250000D03*
D25*
X132291636Y-85350000D03*
X125291636Y-85350000D03*
X132291636Y-87100000D03*
X125291636Y-87100000D03*
D26*
X121991636Y-85000000D03*
X121991636Y-87450000D03*
X130491636Y-83250000D03*
X130491636Y-89200000D03*
X127491636Y-83250000D03*
X127491636Y-89200000D03*
X123491636Y-83250000D03*
X123491636Y-89200000D03*
D14*
X133920000Y-58700000D03*
X133920000Y-62250000D03*
D24*
X125317804Y-102012080D03*
X126307753Y-103002029D03*
X122418666Y-106891116D03*
X121428717Y-105901167D03*
D14*
X38420000Y-39700000D03*
X38420000Y-43250000D03*
D15*
X31770000Y-40750000D03*
X31770000Y-42150000D03*
X26270000Y-42150000D03*
X26270000Y-40750000D03*
X107970000Y-21700000D03*
X107970000Y-23100000D03*
X102470000Y-23100000D03*
X102470000Y-21700000D03*
X50820000Y-59800000D03*
X50820000Y-61200000D03*
X45320000Y-61200000D03*
X45320000Y-59800000D03*
X88920000Y-59800000D03*
X88920000Y-61200000D03*
X83420000Y-61200000D03*
X83420000Y-59800000D03*
D16*
X123532500Y-46150000D03*
D17*
X123812500Y-41950000D03*
D18*
X124032500Y-49900000D03*
D19*
X129032500Y-46150000D03*
D18*
X129032500Y-52100000D03*
X134032500Y-49900000D03*
D17*
X134252500Y-41950000D03*
D16*
X134532500Y-46150000D03*
D20*
X125757500Y-52100000D03*
X137307500Y-49900000D03*
D16*
X80670000Y-65200000D03*
D17*
X80950000Y-61000000D03*
D18*
X81170000Y-68950000D03*
D19*
X86170000Y-65200000D03*
D18*
X86170000Y-71150000D03*
X91170000Y-68950000D03*
D17*
X91390000Y-61000000D03*
D16*
X91670000Y-65200000D03*
D20*
X82895000Y-71150000D03*
X94445000Y-68950000D03*
D16*
X123302549Y-111664087D03*
D17*
X120530690Y-108496249D03*
D18*
X126307753Y-113962184D03*
D19*
X127191636Y-107775000D03*
D18*
X131398921Y-111982285D03*
X133378820Y-106891117D03*
D17*
X127912885Y-101114054D03*
D16*
X131080723Y-103885913D03*
D21*
X129083147Y-114298060D03*
X135694595Y-104575342D03*
D14*
X114420000Y-20700000D03*
X114420000Y-24250000D03*
D15*
X93682500Y-40750000D03*
X93682500Y-42150000D03*
X88182500Y-42150000D03*
X88182500Y-40750000D03*
X107970000Y-59800000D03*
X107970000Y-61200000D03*
X102470000Y-61200000D03*
X102470000Y-59800000D03*
D14*
X95420000Y-58700000D03*
X95420000Y-62250000D03*
D16*
X66382500Y-46150000D03*
D17*
X66662500Y-41950000D03*
D18*
X66882500Y-49900000D03*
D19*
X71882500Y-46150000D03*
D18*
X71882500Y-52100000D03*
X76882500Y-49900000D03*
D17*
X77102500Y-41950000D03*
D16*
X77382500Y-46150000D03*
D20*
X68607500Y-52100000D03*
X80157500Y-49900000D03*
D15*
X127020000Y-21700000D03*
X127020000Y-23100000D03*
X121520000Y-23100000D03*
X121520000Y-21700000D03*
D16*
X118770000Y-27100000D03*
D17*
X119050000Y-22900000D03*
D18*
X119270000Y-30850000D03*
D19*
X124270000Y-27100000D03*
D18*
X124270000Y-33050000D03*
X129270000Y-30850000D03*
D17*
X129490000Y-22900000D03*
D16*
X129770000Y-27100000D03*
D20*
X120995000Y-33050000D03*
X132545000Y-30850000D03*
D27*
X59081636Y-89830000D03*
X61621636Y-89830000D03*
X64161637Y-89830000D03*
X66701636Y-89830000D03*
X69241636Y-89830000D03*
X71781636Y-89830000D03*
X74321635Y-89830000D03*
X76861636Y-89830000D03*
X79401636Y-89830000D03*
D28*
X79951636Y-92920000D03*
X79951636Y-95460000D03*
X79951636Y-98000000D03*
X79951636Y-100540000D03*
X79951636Y-103080000D03*
D27*
X79401636Y-106170000D03*
X76861636Y-106170000D03*
X74321635Y-106170000D03*
X71781636Y-106170000D03*
X69241636Y-106170000D03*
X66701636Y-106170000D03*
D29*
X64161637Y-106170000D03*
D30*
X61621636Y-106170000D03*
D29*
X59081636Y-106170000D03*
D14*
X62420000Y-39700000D03*
X62420000Y-43250000D03*
X76420000Y-58700000D03*
X76420000Y-62250000D03*
X81420000Y-39700000D03*
X81420000Y-43250000D03*
X114420000Y-58700000D03*
X114420000Y-62250000D03*
D16*
X42570000Y-65200000D03*
D17*
X42850000Y-61000000D03*
D18*
X43070000Y-68950000D03*
D19*
X48070000Y-65200000D03*
D18*
X48070000Y-71150000D03*
X53070000Y-68950000D03*
D17*
X53290000Y-61000000D03*
D16*
X53570000Y-65200000D03*
D20*
X44795000Y-71150000D03*
X56345000Y-68950000D03*
D16*
X23520000Y-65200000D03*
D17*
X23800000Y-61000000D03*
D18*
X24020000Y-68950000D03*
D19*
X29020000Y-65200000D03*
D18*
X29020000Y-71150000D03*
X34020000Y-68950000D03*
D17*
X34240000Y-61000000D03*
D16*
X34520000Y-65200000D03*
D20*
X25745000Y-71150000D03*
X37295000Y-68950000D03*
D16*
X42570000Y-27100000D03*
D17*
X42850000Y-22900000D03*
D18*
X43070000Y-30850000D03*
D19*
X48070000Y-27100000D03*
D18*
X48070000Y-33050000D03*
X53070000Y-30850000D03*
D17*
X53290000Y-22900000D03*
D16*
X53570000Y-27100000D03*
D20*
X44795000Y-33050000D03*
X56345000Y-30850000D03*
D14*
X95462500Y-20700000D03*
X95462500Y-24250000D03*
D16*
X23520000Y-27100000D03*
D17*
X23800000Y-22900000D03*
D18*
X24020000Y-30850000D03*
D19*
X29020000Y-27100000D03*
D18*
X29020000Y-33050000D03*
X34020000Y-30850000D03*
D17*
X34240000Y-22900000D03*
D16*
X34520000Y-27100000D03*
D20*
X25745000Y-33050000D03*
X37295000Y-30850000D03*
D16*
X99720000Y-27100000D03*
D17*
X100000000Y-22900000D03*
D18*
X100220000Y-30850000D03*
D19*
X105220000Y-27100000D03*
D18*
X105220000Y-33050000D03*
X110220000Y-30850000D03*
D17*
X110440000Y-22900000D03*
D16*
X110720000Y-27100000D03*
D20*
X101945000Y-33050000D03*
X113495000Y-30850000D03*
D16*
X47332500Y-46150000D03*
D17*
X47612500Y-41950000D03*
D18*
X47832500Y-49900000D03*
D19*
X52832500Y-46150000D03*
D18*
X52832500Y-52100000D03*
X57832500Y-49900000D03*
D17*
X58052500Y-41950000D03*
D16*
X58332500Y-46150000D03*
D20*
X49557500Y-52100000D03*
X61107500Y-49900000D03*
D15*
X74632500Y-40750000D03*
X74632500Y-42150000D03*
X69132500Y-42150000D03*
X69132500Y-40750000D03*
X31770000Y-59800000D03*
X31770000Y-61200000D03*
X26270000Y-61200000D03*
X26270000Y-59800000D03*
X112732500Y-40750000D03*
X112732500Y-42150000D03*
X107232500Y-42150000D03*
X107232500Y-40750000D03*
X131782500Y-40750000D03*
X131782500Y-42150000D03*
X126282500Y-42150000D03*
X126282500Y-40750000D03*
D16*
X80670000Y-27100000D03*
D17*
X80950000Y-22900000D03*
D18*
X81170000Y-30850000D03*
D19*
X86170000Y-27100000D03*
D18*
X86170000Y-33050000D03*
X91170000Y-30850000D03*
D17*
X91390000Y-22900000D03*
D16*
X91670000Y-27100000D03*
D20*
X82895000Y-33050000D03*
X94445000Y-30850000D03*
D15*
X127020000Y-59800000D03*
X127020000Y-61200000D03*
X121520000Y-61200000D03*
X121520000Y-59800000D03*
D14*
X119420000Y-39700000D03*
X119420000Y-43250000D03*
X38420000Y-58700000D03*
X38420000Y-62250000D03*
D16*
X61620000Y-27100000D03*
D17*
X61900000Y-22900000D03*
D18*
X62120000Y-30850000D03*
D19*
X67120000Y-27100000D03*
D18*
X67120000Y-33050000D03*
X72120000Y-30850000D03*
D17*
X72340000Y-22900000D03*
D16*
X72620000Y-27100000D03*
D20*
X63845000Y-33050000D03*
X75395000Y-30850000D03*
D14*
X138420000Y-39700000D03*
X138420000Y-43250000D03*
D24*
X142155784Y-112114868D03*
X143145733Y-113104817D03*
X139256646Y-116993904D03*
X138266697Y-116003955D03*
D16*
X99720000Y-65200000D03*
D17*
X100000000Y-61000000D03*
D18*
X100220000Y-68950000D03*
D19*
X105220000Y-65200000D03*
D18*
X105220000Y-71150000D03*
X110220000Y-68950000D03*
D17*
X110440000Y-61000000D03*
D16*
X110720000Y-65200000D03*
D20*
X101945000Y-71150000D03*
X113495000Y-68950000D03*
D16*
X118770000Y-65200000D03*
D17*
X119050000Y-61000000D03*
D18*
X119270000Y-68950000D03*
D19*
X124270000Y-65200000D03*
D18*
X124270000Y-71150000D03*
X129270000Y-68950000D03*
D17*
X129490000Y-61000000D03*
D16*
X129770000Y-65200000D03*
D20*
X120995000Y-71150000D03*
X132545000Y-68950000D03*
D31*
X129159160Y-96712314D03*
X131669390Y-99222544D03*
X112542151Y-106965362D03*
X115052381Y-109475592D03*
X145961785Y-106779746D03*
X148472015Y-109289976D03*
M02*
