M48
; DRILL file {KiCad 8.0.3} date 2024-06-24T22:19:08+0900
; FORMAT={-:-/ absolute / inch / decimal}
; #@! TF.CreationDate,2024-06-24T22:19:08+09:00
; #@! TF.GenerationSoftware,Kicad,Pcbnew,8.0.3
; #@! TF.FileFunction,NonPlated,1,2,NPTH
FMAT,2
INCH
; #@! TA.AperFunction,NonPlated,NPTH,ComponentDrill
T1C0.0390
; #@! TA.AperFunction,NonPlated,NPTH,ComponentDrill
T2C0.0472
; #@! TA.AperFunction,NonPlated,NPTH,ComponentDrill
T3C0.0670
; #@! TA.AperFunction,NonPlated,NPTH,ComponentDrill
T4C0.1181
; #@! TA.AperFunction,NonPlated,NPTH,ComponentDrill
T5C0.1350
%
G90
G05
T1
X0.937Y-0.9016
X0.937Y-1.6516
X0.937Y-2.4016
X1.348Y-0.9016
X1.348Y-1.6516
X1.348Y-2.4016
X1.687Y-0.9016
X1.687Y-2.4016
X1.8745Y-1.6516
X2.098Y-0.9016
X2.098Y-2.4016
X2.2855Y-1.6516
X2.437Y-0.9016
X2.437Y-2.4016
X2.6245Y-1.6516
X2.848Y-0.9016
X2.848Y-2.4016
X3.0355Y-1.6516
X3.187Y-0.9016
X3.187Y-2.4016
X3.3745Y-1.6516
X3.598Y-0.9016
X3.598Y-2.4016
X3.7855Y-1.6516
X3.937Y-0.9016
X3.937Y-2.4016
X4.0824Y-4.6693
X4.1245Y-1.6516
X4.348Y-0.9016
X4.348Y-2.4016
X4.373Y-4.3786
X4.5355Y-1.6516
X4.687Y-0.9016
X4.687Y-2.4016
X4.7453Y-4.2715
X4.8745Y-1.6516
X5.0359Y-3.9809
X5.098Y-0.9016
X5.098Y-2.4016
X5.2855Y-1.6516
X5.4082Y-4.6693
X5.6989Y-4.3786
X5.9954Y-1.9864
X5.9954Y-2.3974
T2
X4.9327Y-3.3602
X4.9327Y-3.4291
X5.2083Y-3.3602
X5.2083Y-3.4291
T3
X0.926Y-1.0669
X0.926Y-1.8169
X0.926Y-2.5669
X1.3591Y-1.0669
X1.3591Y-1.8169
X1.3591Y-2.5669
X1.676Y-1.0669
X1.676Y-2.5669
X1.8635Y-1.8169
X2.1091Y-1.0669
X2.1091Y-2.5669
X2.2966Y-1.8169
X2.426Y-1.0669
X2.426Y-2.5669
X2.6135Y-1.8169
X2.8591Y-1.0669
X2.8591Y-2.5669
X3.0466Y-1.8169
X3.176Y-1.0669
X3.176Y-2.5669
X3.3635Y-1.8169
X3.6091Y-1.0669
X3.6091Y-2.5669
X3.7966Y-1.8169
X3.926Y-1.0669
X3.926Y-2.5669
X4.1135Y-1.8169
X4.1915Y-4.794
X4.3591Y-1.0669
X4.3591Y-2.5669
X4.4977Y-4.4877
X4.5466Y-1.8169
X4.676Y-1.0669
X4.676Y-2.5669
X4.8544Y-4.3962
X4.8635Y-1.8169
X5.1091Y-1.0669
X5.1091Y-2.5669
X5.1607Y-4.09
X5.2966Y-1.8169
X5.5173Y-4.794
X5.8236Y-4.4877
X5.83Y-1.9754
X5.83Y-2.4085
T4
X0.9457Y-1.2146
X0.9457Y-1.9646
X0.9457Y-2.7146
X1.1425Y-1.3012
X1.1425Y-2.0512
X1.1425Y-2.8012
X1.3394Y-1.2146
X1.3394Y-1.9646
X1.3394Y-2.7146
X1.6957Y-1.2146
X1.6957Y-2.7146
X1.8832Y-1.9646
X1.8925Y-1.3012
X1.8925Y-2.8012
X2.08Y-2.0512
X2.0894Y-1.2146
X2.0894Y-2.7146
X2.2769Y-1.9646
X2.4457Y-1.2146
X2.4457Y-2.7146
X2.6332Y-1.9646
X2.6425Y-1.3012
X2.6425Y-2.8012
X2.83Y-2.0512
X2.8394Y-1.2146
X2.8394Y-2.7146
X3.0269Y-1.9646
X3.1957Y-1.2146
X3.1957Y-2.7146
X3.3832Y-1.9646
X3.3925Y-1.3012
X3.3925Y-2.8012
X3.58Y-2.0512
X3.5894Y-1.2146
X3.5894Y-2.7146
X3.7769Y-1.9646
X3.9457Y-1.2146
X3.9457Y-2.7146
X4.1332Y-1.9646
X4.1425Y-1.3012
X4.1425Y-2.8012
X4.3098Y-4.8844
X4.33Y-2.0512
X4.3394Y-1.2146
X4.3394Y-2.7146
X4.5103Y-4.8065
X4.5269Y-1.9646
X4.5882Y-4.6061
X4.6957Y-1.2146
X4.6957Y-2.7146
X4.8832Y-1.9646
X4.8925Y-1.3012
X4.8925Y-2.8012
X4.9727Y-4.4867
X5.08Y-2.0512
X5.0894Y-1.2146
X5.0894Y-2.7146
X5.1732Y-4.4088
X5.2511Y-4.2083
X5.2769Y-1.9646
X5.5958Y-2.1919
X5.6357Y-4.8844
X5.6824Y-1.9951
X5.6824Y-2.3888
X5.8361Y-4.8065
X5.914Y-4.6061
T5
X1.1425Y-1.0669
X1.1425Y-1.8169
X1.1425Y-2.5669
X1.8925Y-1.0669
X1.8925Y-2.5669
X2.08Y-1.8169
X2.6425Y-1.0669
X2.6425Y-2.5669
X2.83Y-1.8169
X3.3925Y-1.0669
X3.3925Y-2.5669
X3.58Y-1.8169
X4.1425Y-1.0669
X4.1425Y-2.5669
X4.33Y-1.8169
X4.3446Y-4.6409
X4.8925Y-1.0669
X4.8925Y-2.5669
X5.0075Y-4.2431
X5.08Y-1.8169
X5.6705Y-4.6409
X5.83Y-2.1919
M30
