M48
; DRILL file {KiCad 8.0.3} date 2024-06-24T22:19:08+0900
; FORMAT={-:-/ absolute / inch / decimal}
; #@! TF.CreationDate,2024-06-24T22:19:08+09:00
; #@! TF.GenerationSoftware,Kicad,Pcbnew,8.0.3
; #@! TF.FileFunction,Plated,1,2,PTH
FMAT,2
INCH
; #@! TA.AperFunction,Plated,PTH,ViaDrill
T1C0.0118
; #@! TA.AperFunction,Plated,PTH,ComponentDrill
T2C0.0394
%
G90
G05
T1
X0.8167Y-1.2146
X0.8167Y-1.9646
X0.8167Y-2.7146
X0.878Y-1.5039
X1.0039Y-0.815
X1.0087Y-1.565
X1.0093Y-2.315
X1.0354Y-0.815
X1.0354Y-2.4882
X1.0354Y-3.0157
X1.0402Y-1.565
X1.0408Y-2.3144
X1.2441Y-1.8937
X1.2449Y-1.6988
X1.2449Y-2.4488
X1.252Y-0.9488
X1.2715Y-1.3012
X1.2715Y-2.0512
X1.2715Y-2.8012
X1.2764Y-1.6988
X1.2764Y-2.4488
X1.2835Y-0.9488
X1.3307Y-2.9646
X1.4567Y-2.9882
X1.4683Y-1.2146
X1.4683Y-1.9646
X1.4683Y-2.7146
X1.4921Y-1.3622
X1.5126Y-0.815
X1.5126Y-0.9547
X1.5126Y-1.563
X1.5126Y-1.7028
X1.5126Y-2.311
X1.5126Y-2.4508
X1.5667Y-1.2146
X1.5667Y-2.7146
X1.6142Y-1.8583
X1.7542Y-1.9646
X1.7587Y-2.315
X1.7598Y-0.815
X1.7902Y-2.315
X1.7912Y-0.8129
X1.9462Y-1.565
X1.9777Y-1.565
X1.9948Y-0.9488
X1.9949Y-2.4488
X2.0215Y-1.3012
X2.0215Y-2.8012
X2.0263Y-0.9488
X2.0264Y-2.4488
X2.0669Y-2.9409
X2.1824Y-1.6988
X2.1929Y-2.3543
X2.1939Y-3.0669
X2.209Y-2.0512
X2.2139Y-1.6988
X2.2183Y-1.2146
X2.2234Y-2.7146
X2.2606Y-0.815
X2.2606Y-0.9547
X2.2606Y-2.311
X2.2606Y-2.4508
X2.2874Y-1.3622
X2.3167Y-1.2146
X2.3167Y-2.7146
X2.3268Y-2.874
X2.3337Y-3.0669
X2.4058Y-1.9646
X2.4575Y-1.563
X2.4575Y-1.7028
X2.4921Y-2.1181
X2.5028Y-2.315
X2.5042Y-1.9646
X2.5088Y-0.815
X2.5343Y-2.315
X2.5403Y-0.815
X2.6967Y-1.565
X2.7282Y-1.5649
X2.7449Y-0.9488
X2.7449Y-2.4488
X2.7715Y-1.3012
X2.7715Y-2.8012
X2.7764Y-0.9488
X2.7764Y-2.4488
X2.8307Y-2.9173
X2.9324Y-1.6988
X2.959Y-2.0512
X2.9639Y-1.6988
X2.9683Y-1.2146
X2.9683Y-2.7146
X3.0087Y-0.815
X3.0087Y-0.9547
X3.0087Y-2.311
X3.0087Y-2.4508
X3.0433Y-1.3622
X3.0512Y-2.8543
X3.063Y-3.0315
X3.0667Y-1.2146
X3.0667Y-2.7146
X3.128Y-3.8583
X3.1558Y-1.9646
X3.2055Y-1.563
X3.2055Y-1.7028
X3.2162Y-3.8819
X3.2365Y-3.8343
X3.2402Y-2.1102
X3.2542Y-1.9646
X3.2587Y-0.815
X3.2592Y-2.315
X3.2609Y-3.9055
X3.2845Y-3.8107
X3.2902Y-0.815
X3.2907Y-2.3148
X3.3037Y-3.9298
X3.3318Y-3.7874
X3.3554Y-3.9534
X3.379Y-3.7638
X3.4026Y-3.977
X3.4263Y-3.7402
X3.4462Y-1.565
X3.4484Y-4.0006
X3.4669Y-3.714
X3.4777Y-1.565
X3.4918Y-4.0242
X3.4943Y-2.4489
X3.4949Y-0.9488
X3.5075Y-4.185
X3.5075Y-4.248
X3.5075Y-4.3189
X3.5088Y-3.6891
X3.5215Y-1.3012
X3.5215Y-2.8012
X3.5264Y-0.9488
X3.5276Y-2.4488
X3.5303Y-3.6655
X3.5531Y-3.6419
X3.5748Y-3.0709
X3.5786Y-3.6182
X3.622Y-2.8819
X3.6375Y-3.5958
X3.6816Y-1.6998
X3.6965Y-3.9298
X3.709Y-2.0512
X3.7131Y-1.701
X3.7183Y-1.2146
X3.7183Y-2.7146
X3.7201Y-4.0242
X3.7438Y-4.0006
X3.7441Y-1.3583
X3.7567Y-2.311
X3.7567Y-2.4508
X3.7584Y-0.815
X3.7584Y-0.9547
X3.7795Y-2.9882
X3.7874Y-1.4685
X3.8071Y-2.5827
X3.8167Y-1.2146
X3.8167Y-2.7146
X3.8383Y-3.977
X3.9058Y-1.9646
X3.9406Y-3.6419
X3.9535Y-1.563
X3.9535Y-1.7028
X3.9564Y-4.248
X3.9564Y-4.6299
X4.0042Y-1.9646
X4.0075Y-3.9298
X4.0075Y-4.5276
X4.0087Y-2.315
X4.0093Y-0.815
X4.0276Y-2.1417
X4.0351Y-3.6655
X4.0402Y-2.315
X4.0408Y-0.8144
X4.0902Y-4.3189
X4.1375Y-3.6891
X4.1417Y-2.6811
X4.1758Y-4.3189
X4.1768Y-3.9882
X4.1972Y-1.565
X4.2187Y-4.9756
X4.2287Y-1.563
X4.2359Y-3.714
X4.2449Y-0.9488
X4.2508Y-2.4488
X4.2713Y-3.9298
X4.2715Y-1.3012
X4.2715Y-2.8012
X4.2764Y-0.9488
X4.2823Y-2.4488
X4.3343Y-4.248
X4.3383Y-3.7402
X4.3386Y-3.0118
X4.3697Y-4.4528
X4.4308Y-4.2112
X4.4324Y-1.6988
X4.4327Y-3.9534
X4.4367Y-3.7638
X4.459Y-2.0512
X4.4639Y-1.6988
X4.4683Y-1.2146
X4.4683Y-2.7146
X4.4843Y-2.8898
X4.5047Y-0.815
X4.5047Y-0.9547
X4.5047Y-2.311
X4.5047Y-2.4508
X4.5296Y-4.3101
X4.539Y-3.7874
X4.5394Y-1.3504
X4.5667Y-1.2146
X4.5667Y-2.7146
X4.5745Y-3.7047
X4.5745Y-4.1614
X4.6014Y-4.7153
X4.6257Y-4.2913
X4.6298Y-4.2283
X4.6414Y-3.7638
X4.6496Y-3.6457
X4.6558Y-1.9646
X4.6575Y-2.1102
X4.6794Y-4.5149
X4.7016Y-1.563
X4.7016Y-1.7028
X4.7441Y-1.4213
X4.7539Y-3.9882
X4.7542Y-1.9646
X4.7587Y-2.315
X4.7594Y-0.815
X4.7902Y-2.315
X4.7909Y-0.814
X4.8107Y-3.6535
X4.8107Y-3.8107
X4.8383Y-4.0198
X4.878Y-3.7638
X4.8816Y-4.5779
X4.9462Y-1.565
X4.9764Y-5.0197
X4.9777Y-1.565
X4.9803Y-2.1929
X4.9937Y-2.4515
X4.9949Y-0.9488
X4.9966Y-4.0886
X5.0186Y-3.8071
X5.0186Y-3.8406
X5.0215Y-1.3012
X5.0215Y-2.8012
X5.0233Y-4.063
X5.0251Y-2.4488
X5.0264Y-0.9488
X5.0745Y-4.0197
X5.082Y-4.4999
X5.085Y-3.8076
X5.1375Y-3.6181
X5.1572Y-3.7638
X5.1824Y-1.6988
X5.1838Y-3.9064
X5.1965Y-3.7638
X5.209Y-2.0512
X5.2139Y-1.6988
X5.2183Y-1.2146
X5.2183Y-2.7146
X5.2477Y-4.5866
X5.2528Y-0.815
X5.2528Y-0.9547
X5.2559Y-3.752
X5.2644Y-4.3176
X5.2724Y-2.311
X5.2724Y-2.4508
X5.3068Y-3.6732
X5.3423Y-4.1171
X5.3816Y-4.4921
X5.3906Y-2.311
X5.3906Y-2.4508
X5.4058Y-1.9646
X5.4327Y-3.7047
X5.4496Y-1.563
X5.4496Y-1.7028
X5.476Y-3.8071
X5.476Y-4.0827
X5.4839Y-4.0079
X5.4918Y-4.0512
X5.4954Y-3.9564
X5.5036Y-4.3228
X5.5194Y-4.2047
X5.5445Y-4.9756
X5.547Y-4.3853
X5.5587Y-4.126
X5.5823Y-4.2992
X5.5958Y-2.063
X5.6299Y-4.2441
X5.665Y-4.5197
X5.6824Y-2.5177
X5.685Y-2.9104
X5.7449Y-4.8977
X5.7465Y-4.2039
X5.8422Y-4.2402
X5.8454Y-4.3028
X5.9055Y-2.6024
X5.9273Y-4.7153
X5.9481Y-2.0837
X6.0052Y-4.5149
X6.0315Y-1.6063
X6.082Y-2.2943
X6.082Y-2.3258
T2
X2.3383Y-3.2756
X2.4383Y-3.2756
X2.5197Y-3.0709
X2.5383Y-3.2756
X2.6197Y-3.0709
X2.7197Y-3.0709
X3.6375Y-3.2756
X3.7375Y-3.2756
X3.8189Y-3.0709
X3.8375Y-3.2756
X3.9189Y-3.0709
X3.9375Y-3.2756
X4.0189Y-3.0709
X4.0375Y-3.2756
X4.1189Y-3.0709
X4.1375Y-3.2756
X4.2189Y-3.0709
X4.2375Y-3.2756
X4.3189Y-3.0709
X4.3375Y-3.2756
X4.4189Y-3.0709
X4.4375Y-3.2756
X4.5189Y-3.0709
X4.5375Y-3.2756
X4.6189Y-3.0709
X4.7189Y-3.0709
X5.606Y-3.815
X5.6767Y-3.8857
X5.7474Y-3.9564
X5.8181Y-4.0271
X5.8888Y-4.0978
X5.9595Y-4.1685
X6.0302Y-4.2392
X6.1009Y-4.3099
T2
G00X4.8127Y-3.3465
M15
G01X4.793Y-3.3465
M16
G05
G00X4.8127Y-3.4429
M15
G01X4.793Y-3.4429
M16
G05
G00X4.8717Y-3.2776
M15
G01X4.852Y-3.2776
M16
G05
G00X4.8717Y-3.5118
M15
G01X4.852Y-3.5118
M16
G05
G00X5.0292Y-3.2776
M15
G01X5.0095Y-3.2776
M16
G05
G00X5.0292Y-3.5118
M15
G01X5.0095Y-3.5118
M16
G05
G00X5.1473Y-3.2776
M15
G01X5.1276Y-3.2776
M16
G05
G00X5.1473Y-3.5118
M15
G01X5.1276Y-3.5118
M16
G05
M30
