G04 #@! TF.GenerationSoftware,KiCad,Pcbnew,8.0.3*
G04 #@! TF.CreationDate,2024-06-24T22:19:19+09:00*
G04 #@! TF.ProjectId,sepsepkbd,73657073-6570-46b6-9264-2e6b69636164,2.1*
G04 #@! TF.SameCoordinates,Original*
G04 #@! TF.FileFunction,Profile,NP*
%FSLAX46Y46*%
G04 Gerber Fmt 4.6, Leading zero omitted, Abs format (unit mm)*
G04 Created by KiCad (PCBNEW 8.0.3) date 2024-06-24 22:19:19*
%MOMM*%
%LPD*%
G01*
G04 APERTURE LIST*
G04 #@! TA.AperFunction,Profile*
%ADD10C,0.050000*%
G04 #@! TD*
G04 #@! TA.AperFunction,Profile*
%ADD11C,0.120000*%
G04 #@! TD*
G04 APERTURE END LIST*
D10*
X121650000Y-79762500D02*
X19425000Y-79762500D01*
X133949136Y-91400000D02*
X142395585Y-94354416D01*
X19425000Y-79762500D02*
X19425000Y-17612500D01*
X144029616Y-131348172D02*
X110353656Y-131348172D01*
X142395585Y-94354416D02*
X157492315Y-109451145D01*
X57491636Y-81400000D02*
X133949136Y-81400000D01*
X133949136Y-81400000D02*
X133949136Y-91400000D01*
X121650000Y-74725000D02*
X121650000Y-79762500D01*
X96883272Y-117877788D02*
X57491636Y-110700000D01*
X57491636Y-92100000D02*
X57491636Y-81400000D01*
X110353656Y-131348172D02*
X96883272Y-117877788D01*
X57491636Y-110700000D02*
X57491636Y-103900000D01*
X157547500Y-17612500D02*
X157547500Y-74725000D01*
X157547500Y-74725000D02*
X121650000Y-74725000D01*
X19425000Y-17612500D02*
X157547500Y-17612500D01*
X157492315Y-109451145D02*
X157500000Y-117877788D01*
X157500000Y-117877788D02*
X144029616Y-131348172D01*
D11*
X46270000Y-20850000D02*
X46270000Y-23950000D01*
X46270000Y-23950000D02*
X49870000Y-23950000D01*
X49870000Y-20850000D02*
X46270000Y-20850000D01*
X49870000Y-23950000D02*
X49870000Y-20850000D01*
X65320000Y-20850000D02*
X65320000Y-23950000D01*
X65320000Y-23950000D02*
X68920000Y-23950000D01*
X68920000Y-20850000D02*
X65320000Y-20850000D01*
X68920000Y-23950000D02*
X68920000Y-20850000D01*
X51032500Y-39900000D02*
X51032500Y-43000000D01*
X51032500Y-43000000D02*
X54632500Y-43000000D01*
X54632500Y-39900000D02*
X51032500Y-39900000D01*
X54632500Y-43000000D02*
X54632500Y-39900000D01*
X84370000Y-20850000D02*
X84370000Y-23950000D01*
X84370000Y-23950000D02*
X87970000Y-23950000D01*
X87970000Y-20850000D02*
X84370000Y-20850000D01*
X87970000Y-23950000D02*
X87970000Y-20850000D01*
X151232500Y-53875000D02*
X151232500Y-57475000D01*
X151232500Y-57475000D02*
X154332500Y-57475000D01*
X154332500Y-53875000D02*
X151232500Y-53875000D01*
X154332500Y-57475000D02*
X154332500Y-53875000D01*
X65320000Y-58950000D02*
X65320000Y-62050000D01*
X65320000Y-62050000D02*
X68920000Y-62050000D01*
X68920000Y-58950000D02*
X65320000Y-58950000D01*
X68920000Y-62050000D02*
X68920000Y-58950000D01*
X27220000Y-20850000D02*
X27220000Y-23950000D01*
X27220000Y-23950000D02*
X30820000Y-23950000D01*
X30820000Y-20850000D02*
X27220000Y-20850000D01*
X30820000Y-23950000D02*
X30820000Y-20850000D01*
X104661446Y-114731164D02*
X106853477Y-116923195D01*
X106853477Y-116923195D02*
X109399062Y-114377610D01*
X107207031Y-112185579D02*
X104661446Y-114731164D01*
X109399062Y-114377610D02*
X107207031Y-112185579D01*
X121499427Y-104628375D02*
X123691458Y-106820406D01*
X123691458Y-106820406D02*
X126237043Y-104274821D01*
X124045012Y-102082790D02*
X121499427Y-104628375D01*
X126237043Y-104274821D02*
X124045012Y-102082790D01*
X27220000Y-39900000D02*
X27220000Y-43000000D01*
X27220000Y-43000000D02*
X30820000Y-43000000D01*
X30820000Y-39900000D02*
X27220000Y-39900000D01*
X30820000Y-43000000D02*
X30820000Y-39900000D01*
X103420000Y-20850000D02*
X103420000Y-23950000D01*
X103420000Y-23950000D02*
X107020000Y-23950000D01*
X107020000Y-20850000D02*
X103420000Y-20850000D01*
X107020000Y-23950000D02*
X107020000Y-20850000D01*
X46270000Y-58950000D02*
X46270000Y-62050000D01*
X46270000Y-62050000D02*
X49870000Y-62050000D01*
X49870000Y-58950000D02*
X46270000Y-58950000D01*
X49870000Y-62050000D02*
X49870000Y-58950000D01*
X84370000Y-58950000D02*
X84370000Y-62050000D01*
X84370000Y-62050000D02*
X87970000Y-62050000D01*
X87970000Y-58950000D02*
X84370000Y-58950000D01*
X87970000Y-62050000D02*
X87970000Y-58950000D01*
X89132500Y-39900000D02*
X89132500Y-43000000D01*
X89132500Y-43000000D02*
X92732500Y-43000000D01*
X92732500Y-39900000D02*
X89132500Y-39900000D01*
X92732500Y-43000000D02*
X92732500Y-39900000D01*
X103420000Y-58950000D02*
X103420000Y-62050000D01*
X103420000Y-62050000D02*
X107020000Y-62050000D01*
X107020000Y-58950000D02*
X103420000Y-58950000D01*
X107020000Y-62050000D02*
X107020000Y-58950000D01*
X122470000Y-20850000D02*
X122470000Y-23950000D01*
X122470000Y-23950000D02*
X126070000Y-23950000D01*
X126070000Y-20850000D02*
X122470000Y-20850000D01*
X126070000Y-23950000D02*
X126070000Y-20850000D01*
D10*
X57491636Y-103900000D02*
X77891636Y-103900000D01*
X77891636Y-92100000D02*
X57491636Y-92100000D01*
X77891636Y-103900000D02*
X77891636Y-92100000D01*
D11*
X70082500Y-39900000D02*
X70082500Y-43000000D01*
X70082500Y-43000000D02*
X73682500Y-43000000D01*
X73682500Y-39900000D02*
X70082500Y-39900000D01*
X73682500Y-43000000D02*
X73682500Y-39900000D01*
X27220000Y-58950000D02*
X27220000Y-62050000D01*
X27220000Y-62050000D02*
X30820000Y-62050000D01*
X30820000Y-58950000D02*
X27220000Y-58950000D01*
X30820000Y-62050000D02*
X30820000Y-58950000D01*
X108182500Y-39900000D02*
X108182500Y-43000000D01*
X108182500Y-43000000D02*
X111782500Y-43000000D01*
X111782500Y-39900000D02*
X108182500Y-39900000D01*
X111782500Y-43000000D02*
X111782500Y-39900000D01*
X127232500Y-39900000D02*
X127232500Y-43000000D01*
X127232500Y-43000000D02*
X130832500Y-43000000D01*
X130832500Y-39900000D02*
X127232500Y-39900000D01*
X130832500Y-43000000D02*
X130832500Y-39900000D01*
X122470000Y-58950000D02*
X122470000Y-62050000D01*
X122470000Y-62050000D02*
X126070000Y-62050000D01*
X126070000Y-58950000D02*
X122470000Y-58950000D01*
X126070000Y-62050000D02*
X126070000Y-58950000D01*
X138337407Y-114731163D02*
X140529438Y-116923194D01*
X140529438Y-116923194D02*
X143075023Y-114377609D01*
X140882992Y-112185578D02*
X138337407Y-114731163D01*
X143075023Y-114377609D02*
X140882992Y-112185578D01*
M02*
